<?xml version="1.0"?>
<svg xmlns="http://www.w3.org/2000/svg" id="Capa_1" enable-background="new 0 0 509.986 509.986" height="512px" viewBox="0 0 509.986 509.986" width="512px" class=""><g><path id="XMLID_645_" d="m386.863 345.171v-345.171h-338.647v470.081h257.41z" fill="#fff9d7" data-original="#FFF9D7" class="" style="fill:#58B695" data-old_color="#fff9d7"/><path id="XMLID_1083_" d="m225.745 0v470.081h79.881l81.237-124.91v-345.171z" fill="#ffeb97" data-original="#FFEB97" class="" style="fill:#4A566E" data-old_color="#ffeb97"/><path id="XMLID_636_" d="m174.454 125.981h-20.032c-14.768 0-26.739-11.972-26.739-26.739 0-14.768 11.972-26.739 26.739-26.739h20.032c14.768 0 26.739 11.972 26.739 26.739 0 14.768-11.972 26.739-26.739 26.739z" fill="#6cd0f5" data-original="#6CD0F5" class="active-path" data-old_color="#6cd0f5" style="fill:#F9CB33"/><path id="XMLID_643_" d="m247.059 106.799h71.891v30h-71.891z" fill="#00588e" data-original="#00588E" class="" style="fill:#F9CB33" data-old_color="#00588e"/><g fill="#137ece"><path id="XMLID_642_" d="m118.432 174.008h107.313v30h-107.313z" data-original="#137ECE" class="" style="fill:#F9CB33" data-old_color="#137ECE"/><path id="XMLID_641_" d="m118.432 228.328h200.518v30h-200.518z" data-original="#137ECE" class="" style="fill:#F9CB33" data-old_color="#137ECE"/><path id="XMLID_1079_" d="m118.432 228.328h200.518v30h-200.518z" data-original="#137ECE" class="" style="fill:#F9CB33" data-old_color="#137ECE"/><path id="XMLID_640_" d="m118.432 282.647h200.518v30h-200.518z" data-original="#137ECE" class="" style="fill:#F9CB33" data-old_color="#137ECE"/><path id="XMLID_1077_" d="m118.432 282.647h200.518v30h-200.518z" data-original="#137ECE" class="" style="fill:#F9CB33" data-old_color="#137ECE"/></g><path id="XMLID_1130_" d="m225.745 228.328h93.205v30h-93.205z" fill="#00588e" data-original="#00588E" class="" style="fill:#F9CB33" data-old_color="#00588e"/><path id="XMLID_1128_" d="m225.745 282.647h93.205v30h-93.205z" fill="#00588e" data-original="#00588E" class="" style="fill:#F9CB33" data-old_color="#00588e"/><path id="XMLID_1594_" d="m225.745 336.967h93.205v30h-93.205z" fill="#00588e" data-original="#00588E" class="" style="fill:#F9CB33" data-old_color="#00588e"/><path id="XMLID_639_" d="m118.432 336.967h200.518v30h-200.518z" fill="#137ece" data-original="#137ECE" class="" style="fill:#F9CB33" data-old_color="#137ece"/><path id="XMLID_895_" d="m118.432 336.967h200.518v30h-200.518z" fill="#137ece" data-original="#137ECE" class="" style="fill:#F9CB33" data-old_color="#137ece"/><path id="XMLID_1139_" d="m225.745 336.967h93.205v30h-93.205z" fill="#00588e" data-original="#00588E" class="" style="fill:#F9CB33" data-old_color="#00588e"/><path id="XMLID_499_" d="m371.863 330.171c-49.575 0-89.907 40.332-89.907 89.907s40.332 89.907 89.907 89.907 89.907-40.332 89.907-89.907-40.332-89.907-89.907-89.907z" fill="#ffaf37" data-original="#FFAF37" class="" data-old_color="#ffaf37" style="fill:#FFFFFF"/><path id="XMLID_644_" d="m413.774 399.381-21.214-21.214-20.697 20.698-20.698-20.698-21.214 21.214 20.698 20.698-20.698 20.697 21.214 21.214 20.698-20.698 20.697 20.698 21.214-21.214-20.698-20.697z" fill="#ff475a" data-original="#FF475A" class="" style="fill:#FF475A"/><path id="XMLID_1282_" d="m371.863 330.171v179.814c49.575 0 89.907-40.332 89.907-89.907s-40.332-89.907-89.907-89.907z" fill="#ff8c05" data-original="#FF8C05" class="" data-old_color="#ff8c05" style="fill:#FFFFFF"/><path id="XMLID_1284_" d="m413.774 399.381-21.214-21.214-20.697 20.698v42.427l20.697 20.698 21.214-21.214-20.698-20.697z" fill="#e80f33" data-original="#E80F33" class="" style="fill:#FF475A" data-old_color="#e80f33"/></g> </svg>
