<?xml version="1.0" encoding="iso-8859-1"?>
<!-- Generator: Adobe Illustrator 19.0.0, SVG Export Plug-In . SVG Version: 6.00 Build 0)  -->
<svg version="1.1" id="Layer_1" xmlns="http://www.w3.org/2000/svg" xmlns:xlink="http://www.w3.org/1999/xlink" x="0px" y="0px"
	 viewBox="0 0 512 512" style="enable-background:new 0 0 512 512;" xml:space="preserve">
<path style="fill:#48587C;" d="M404.898,173.503h-29.116C367.143,112.363,316.812,65.44,256,65.44s-111.143,46.922-119.782,108.062
	h-29.116c-54.823,0-99.265,46.519-99.265,103.905s44.443,103.906,99.265,103.906h297.796c54.823,0,99.265-46.521,99.265-103.906
	S459.721,173.503,404.898,173.503z"/>
<path style="fill:#FFFFFF;" d="M472.816,285.244c-4.328,0-7.837-3.508-7.837-7.837c0-35.687-26.952-64.721-60.082-64.721
	c-4.328,0-7.837-3.508-7.837-7.837c0-4.329,3.509-7.837,7.837-7.837c41.772,0,75.755,36.066,75.755,80.394
	C480.653,281.736,477.144,285.244,472.816,285.244z"/>
<path style="opacity:0.1;enable-background:new    ;" d="M40.655,310.169c0-57.386,44.443-103.905,99.265-103.905h29.116
	c8.639-61.14,58.97-108.062,119.782-108.062c24.206,0,46.742,7.447,65.658,20.253C332.508,86.362,296.596,65.44,256,65.44
	c-60.812,0-111.143,46.922-119.782,108.062h-29.116c-54.823,0-99.265,46.519-99.265,103.905c0,38.171,19.674,71.518,48.978,89.581
	C46.602,350.659,40.655,331.143,40.655,310.169z"/>
<path style="fill:#46D8BA;" d="M340.597,337.159l-74.761-111.361c-2.198-3.278-5.89-5.245-9.836-5.245
	c-3.952,0-7.637,1.968-9.842,5.245l-74.761,111.361c-2.436,3.633-2.673,8.316-0.613,12.177c2.054,3.862,6.075,6.276,10.455,6.276
	h36.252v79.1c0,6.544,5.305,11.849,11.849,11.849h53.32c6.543,0,11.849-5.305,11.849-11.849v-79.1h36.252
	c4.374,0,8.395-2.414,10.454-6.276C343.275,345.475,343.038,340.791,340.597,337.159z"/>
<path style="opacity:0.2;fill:#FFFFFF;enable-background:new    ;" d="M340.597,337.159l-74.761-111.361
	c-2.198-3.278-5.89-5.245-9.836-5.245c-3.952,0-7.637,1.968-9.842,5.245l-10.328,15.385L307.8,348.386
	c1.457,2.167,2.111,4.708,1.978,7.227h20.984c4.374,0,8.395-2.414,10.454-6.276C343.275,345.475,343.038,340.791,340.597,337.159z"
	/>
<path d="M404.898,165.666h-22.479c-5.556-28.943-20.198-55.339-41.685-74.914C317.272,69.377,287.18,57.604,256,57.604
	s-61.272,11.773-84.734,33.148c-21.487,19.575-36.129,45.971-41.685,74.914h-22.479C48.045,165.666,0,215.793,0,277.407
	C0,339.023,48.045,389.15,107.102,389.15h102.551v45.561c0,10.855,8.831,19.686,19.686,19.686h53.32
	c10.854,0,19.686-8.83,19.686-19.686V389.15h102.553C463.955,389.15,512,339.022,512,277.407S463.955,165.666,404.898,165.666z
	 M286.672,355.612v79.1c0,2.212-1.8,4.012-4.012,4.012h-53.32c-2.212,0-4.012-1.8-4.012-4.012v-79.1
	c0-4.329-3.509-7.837-7.837-7.837h-36.252c-1.486,0-2.841-0.812-3.54-2.126c-0.699-1.311-0.62-2.892,0.205-4.121l74.756-111.355
	c0.751-1.116,2-1.783,3.339-1.783c1.339,0,2.583,0.663,3.329,1.776l74.763,111.363c0.828,1.232,0.907,2.81,0.208,4.12
	c-0.699,1.311-2.055,2.125-3.539,2.125h-36.252C290.181,347.775,286.672,351.284,286.672,355.612z M404.898,373.477H302.345v-10.029
	h28.415c7.285,0,13.941-3.995,17.368-10.424c3.431-6.431,3.038-14.186-1.026-20.234l-74.76-111.359
	c-3.661-5.458-9.771-8.715-16.343-8.715c-6.566,0-12.676,3.255-16.348,8.713l-74.764,111.365c-4.056,6.05-4.447,13.802-1.023,20.222
	c3.422,6.434,10.079,10.432,17.375,10.432h28.415v10.029H107.102c-50.414,0-91.429-43.097-91.429-96.069
	s41.014-96.068,91.429-96.068h29.116c3.905,0,7.213-2.875,7.759-6.741c3.952-27.965,17.391-53.627,37.844-72.261
	C202.39,83.598,228.734,73.277,256,73.277c27.266,0,53.61,10.32,74.178,29.061c20.453,18.634,33.892,44.296,37.844,72.261
	c0.547,3.866,3.855,6.741,7.759,6.741h29.116c50.414,0,91.429,43.096,91.429,96.068S455.312,373.477,404.898,373.477z"/>
<g>
</g>
<g>
</g>
<g>
</g>
<g>
</g>
<g>
</g>
<g>
</g>
<g>
</g>
<g>
</g>
<g>
</g>
<g>
</g>
<g>
</g>
<g>
</g>
<g>
</g>
<g>
</g>
<g>
</g>
</svg>
