<svg height="30" width="30" viewBox="0 0 469.333 469.333" xmlns="http://www.w3.org/2000/svg"><g fill="#607d8b"><path d="M149.332 128h-128C9.559 128 0 118.441 0 106.668c0-11.777 9.559-21.336 21.332-21.336h128c11.777 0 21.336 9.559 21.336 21.336 0 11.773-9.559 21.332-21.336 21.332zm0 0M149.332 42.668h-128C9.559 42.668 0 33.109 0 21.332 0 9.559 9.559 0 21.332 0h128c11.777 0 21.336 9.559 21.336 21.332 0 11.777-9.559 21.336-21.336 21.336zm0 0M149.332 213.332h-128C9.559 213.332 0 203.777 0 192s9.559-21.332 21.332-21.332h128c11.777 0 21.336 9.555 21.336 21.332s-9.559 21.332-21.336 21.332zm0 0M448 298.668H21.332C9.559 298.668 0 289.109 0 277.332 0 265.559 9.559 256 21.332 256H448c11.777 0 21.332 9.559 21.332 21.332 0 11.777-9.555 21.336-21.332 21.336zm0 0M448 384H21.332C9.559 384 0 374.441 0 362.668c0-11.777 9.559-21.336 21.332-21.336H448c11.777 0 21.332 9.559 21.332 21.336 0 11.773-9.555 21.332-21.332 21.332zm0 0M448 469.332H21.332C9.559 469.332 0 459.777 0 448s9.559-21.332 21.332-21.332H448c11.777 0 21.332 9.555 21.332 21.332s-9.555 21.332-21.332 21.332zm0 0"/></g><path d="M437.332 0h-192c-17.64 0-32 14.355-32 32v149.332c0 17.645 14.36 32 32 32h192c17.645 0 32-14.355 32-32V32c0-17.645-14.355-32-32-32zm-10.664 42.668v86.078l-30.316-27.262c-8.575-7.683-21.739-7.234-29.696 1.13l-34.668 36.308-16.789-15.785c-8.531-8.024-21.972-7.66-30.058.832L256 154.539V42.668zm0 0" fill="#2196f3"/></svg>