<svg height="512pt" viewBox="0 0 512 512" width="512pt" xmlns="http://www.w3.org/2000/svg"><path d="m416 512h-320c-53.023438 0-96-42.976562-96-96v-320c0-53.023438 42.976562-96 96-96h320c53.023438 0 96 42.976562 96 96v320c0 53.023438-42.976562 96-96 96zm0 0" fill="#ffe6e2"/><path d="m362.671875 202.671875h-64c-5.886719 0-10.671875-4.785156-10.671875-10.671875s4.785156-10.671875 10.671875-10.671875h64c5.886719 0 10.671875 4.785156 10.671875 10.671875s-4.785156 10.671875-10.671875 10.671875zm0 0" fill="#fd907e"/><path d="m362.671875 160h-64c-5.886719 0-10.671875-4.785156-10.671875-10.671875s4.785156-10.671875 10.671875-10.671875h64c5.886719 0 10.671875 4.785156 10.671875 10.671875s-4.785156 10.671875-10.671875 10.671875zm0 0" fill="#fc573b"/><path d="m362.671875 245.328125h-64c-5.886719 0-10.671875-4.785156-10.671875-10.671875s4.785156-10.65625 10.671875-10.65625h64c5.886719 0 10.671875 4.785156 10.671875 10.671875s-4.785156 10.65625-10.671875 10.65625zm0 0" fill="#fc573b"/><path d="m362.671875 288h-213.34375c-5.886719 0-10.671875-4.785156-10.671875-10.671875s4.785156-10.671875 10.671875-10.671875h213.328125c5.886719 0 10.671875 4.785156 10.671875 10.671875s-4.769531 10.671875-10.65625 10.671875zm0 0" fill="#fd907e"/><path d="m362.671875 330.671875h-213.34375c-5.886719 0-10.671875-4.785156-10.671875-10.671875s4.785156-10.671875 10.671875-10.671875h213.328125c5.886719 0 10.671875 4.785156 10.671875 10.671875s-4.769531 10.671875-10.65625 10.671875zm0 0" fill="#fc573b"/><path d="m362.671875 373.328125h-213.34375c-5.886719 0-10.671875-4.785156-10.671875-10.671875s4.785156-10.65625 10.671875-10.65625h213.328125c5.886719 0 10.671875 4.785156 10.671875 10.671875s-4.769531 10.65625-10.65625 10.65625zm0 0" fill="#fd907e"/><path d="m250.671875 138.671875h-96c-8.816406 0-16 7.183594-16 16v74.671875c0 8.816406 7.183594 16 16 16h96c8.816406 0 16-7.183594 16-16v-74.671875c0-8.832031-7.183594-16-16-16zm-5.34375 21.328125v43.039062l-15.152344-13.632812c-4.289062-3.839844-10.863281-3.613281-14.847656.5625l-17.328125 18.160156-8.398438-7.890625c-4.273437-4.015625-10.992187-3.839843-15.027343.417969l-14.574219 15.28125v-55.9375zm0 0" fill="#fc573b"/></svg>