<svg xmlns="http://www.w3.org/2000/svg" height="512" width="512" viewBox="0 0 509.986 509.986" ><path d="M386.863 345.171V0H48.216v470.081h257.41z" fill="#58b695" data-original="#FFF9D7" data-old_color="#fff9d7"/><path d="M225.745 0v470.081h79.881l81.237-124.91V0z" fill="#4a566e" data-original="#FFEB97" data-old_color="#ffeb97"/><path d="M174.454 125.981h-20.032c-14.768 0-26.739-11.972-26.739-26.739 0-14.768 11.972-26.739 26.739-26.739h20.032c14.768 0 26.739 11.972 26.739 26.739 0 14.768-11.972 26.739-26.739 26.739z" fill="#f9cb33" data-original="#6CD0F5" class="active-path" data-old_color="#6cd0f5"/><path d="M247.059 106.799h71.891v30h-71.891z" fill="#f9cb33" data-original="#00588E" data-old_color="#00588e"/><g fill="#137ece"><path d="M118.432 174.008h107.313v30H118.432zM118.432 228.328H318.95v30H118.432z" data-original="#137ECE" data-old_color="#137ECE" fill="#f9cb33"/><path d="M118.432 228.328H318.95v30H118.432zM118.432 282.647H318.95v30H118.432z" data-original="#137ECE" data-old_color="#137ECE" fill="#f9cb33"/><path d="M118.432 282.647H318.95v30H118.432z" data-original="#137ECE" data-old_color="#137ECE" fill="#f9cb33"/></g><path d="M225.745 228.328h93.205v30h-93.205zM225.745 282.647h93.205v30h-93.205zM225.745 336.967h93.205v30h-93.205z" fill="#f9cb33" data-original="#00588E" data-old_color="#00588e"/><path d="M118.432 336.967H318.95v30H118.432z" fill="#f9cb33" data-original="#137ECE" data-old_color="#137ece"/><path d="M118.432 336.967H318.95v30H118.432z" fill="#f9cb33" data-original="#137ECE" data-old_color="#137ece"/><path d="M225.745 336.967h93.205v30h-93.205z" fill="#f9cb33" data-original="#00588E" data-old_color="#00588e"/><path d="M371.863 330.171c-49.575 0-89.907 40.332-89.907 89.907s40.332 89.907 89.907 89.907 89.907-40.332 89.907-89.907-40.332-89.907-89.907-89.907z" fill="#fff" data-original="#FFAF37" data-old_color="#ffaf37"/><path d="M413.774 399.381l-21.214-21.214-20.697 20.698-20.698-20.698-21.214 21.214 20.698 20.698-20.698 20.697 21.214 21.214 20.698-20.698 20.697 20.698 21.214-21.214-20.698-20.697z" fill="#ff475a" data-original="#FF475A"/><path d="M371.863 330.171v179.814c49.575 0 89.907-40.332 89.907-89.907s-40.332-89.907-89.907-89.907z" fill="#fff" data-original="#FF8C05" data-old_color="#ff8c05"/><path d="M413.774 399.381l-21.214-21.214-20.697 20.698v42.427l20.697 20.698 21.214-21.214-20.698-20.697z" fill="#ff475a" data-original="#E80F33" data-old_color="#e80f33"/></svg>