<svg xmlns="http://www.w3.org/2000/svg" viewBox="0 0 512 512"><path d="M404.898 173.503h-29.116C367.143 112.363 316.812 65.44 256 65.44s-111.143 46.922-119.782 108.062h-29.116c-54.823 0-99.265 46.519-99.265 103.905s44.443 103.906 99.265 103.906h297.796c54.823 0 99.265-46.521 99.265-103.906s-44.442-103.904-99.265-103.904z" fill="#48587c"/><path d="M472.816 285.244a7.837 7.837 0 01-7.837-7.837c0-35.687-26.952-64.721-60.082-64.721a7.837 7.837 0 01-7.837-7.837 7.837 7.837 0 017.837-7.837c41.772 0 75.755 36.066 75.755 80.394a7.835 7.835 0 01-7.836 7.838z" fill="#fff"/><path d="M40.655 310.169c0-57.386 44.443-103.905 99.265-103.905h29.116c8.639-61.14 58.97-108.062 119.782-108.062 24.206 0 46.742 7.447 65.658 20.253C332.508 86.362 296.596 65.44 256 65.44c-60.812 0-111.143 46.922-119.782 108.062h-29.116c-54.823 0-99.265 46.519-99.265 103.905 0 38.171 19.674 71.518 48.978 89.581-10.213-16.329-16.16-35.845-16.16-56.819z" opacity=".1"/><path d="M340.597 337.159l-74.761-111.361a11.846 11.846 0 00-9.836-5.245 11.86 11.86 0 00-9.842 5.245l-74.761 111.361a11.851 11.851 0 00-.613 12.177 11.84 11.84 0 0010.455 6.276h36.252v79.1c0 6.544 5.305 11.849 11.849 11.849h53.32c6.543 0 11.849-5.305 11.849-11.849v-79.1h36.252a11.85 11.85 0 009.836-18.453z" fill="#46d8ba"/><path d="M340.597 337.159l-74.761-111.361a11.846 11.846 0 00-9.836-5.245 11.86 11.86 0 00-9.842 5.245l-10.328 15.385 71.97 107.203a11.81 11.81 0 011.978 7.227h20.984a11.85 11.85 0 009.835-18.454z" opacity=".2" fill="#fff"/><path d="M404.898 165.666h-22.479c-5.556-28.943-20.198-55.339-41.685-74.914C317.272 69.377 287.18 57.604 256 57.604s-61.272 11.773-84.734 33.148c-21.487 19.575-36.129 45.971-41.685 74.914h-22.479C48.045 165.666 0 215.793 0 277.407 0 339.023 48.045 389.15 107.102 389.15h102.551v45.561c0 10.855 8.831 19.686 19.686 19.686h53.32c10.854 0 19.686-8.83 19.686-19.686V389.15h102.553C463.955 389.15 512 339.022 512 277.407s-48.045-111.741-107.102-111.741zM286.672 355.612v79.1c0 2.212-1.8 4.012-4.012 4.012h-53.32a4.017 4.017 0 01-4.012-4.012v-79.1a7.837 7.837 0 00-7.837-7.837h-36.252a3.998 3.998 0 01-3.54-2.126 4.004 4.004 0 01.205-4.121l74.756-111.355a4.023 4.023 0 013.339-1.783 4 4 0 013.329 1.776l74.763 111.363a3.997 3.997 0 01.208 4.12 4.004 4.004 0 01-3.539 2.125h-36.252a7.839 7.839 0 00-7.836 7.838zm118.226 17.865H302.345v-10.029h28.415a19.647 19.647 0 0017.368-10.424 19.639 19.639 0 00-1.026-20.234l-74.76-111.359a19.646 19.646 0 00-16.343-8.715 19.675 19.675 0 00-16.348 8.713l-74.764 111.365a19.652 19.652 0 00-1.023 20.222 19.637 19.637 0 0017.375 10.432h28.415v10.029H107.102c-50.414 0-91.429-43.097-91.429-96.069s41.014-96.068 91.429-96.068h29.116a7.836 7.836 0 007.759-6.741c3.952-27.965 17.391-53.627 37.844-72.261C202.39 83.598 228.734 73.277 256 73.277c27.266 0 53.61 10.32 74.178 29.061 20.453 18.634 33.892 44.296 37.844 72.261a7.838 7.838 0 007.759 6.741h29.116c50.414 0 91.429 43.096 91.429 96.068s-41.014 96.069-91.428 96.069z"/></svg>